<svg width="53" height="53" viewBox="0 0 53 53" fill="none" xmlns="http://www.w3.org/2000/svg">
<g filter="url(#filter0_d)">
<path d="M7.94239 6.13603C7.5198 5.26249 7.88524 4.2118 8.75878 3.78929C9.04391 3.65138 9.34755 3.5988 9.64242 3.61899C9.92052 3.00073 10.4088 2.47297 11.0667 2.15466C12.554 1.43509 14.3429 2.05749 15.0625 3.54473C15.2364 3.9042 15.3313 4.28132 15.3551 4.6566C16.0189 4.63448 16.6651 4.99615 16.973 5.6325C17.3896 6.49357 17.0294 7.52925 16.1682 7.94587C15.3862 8.32422 14.4617 8.06026 13.9862 7.36386C13.8863 7.42795 13.7821 7.48729 13.6725 7.5404C12.4967 8.10924 11.1328 7.83878 10.2573 6.96585C9.3903 7.36474 8.35998 6.99895 7.94239 6.13603Z" fill="url(#paint0_linear)"/>
<path d="M8.38438 2.93673C9.19534 2.93673 9.85275 2.27932 9.85275 1.46837C9.85275 0.65741 9.19534 0 8.38438 0C7.57343 0 6.91602 0.65741 6.91602 1.46837C6.91602 2.27932 7.57343 2.93673 8.38438 2.93673Z" fill="url(#paint1_linear)"/>
<path d="M17.1076 14.7783H13.5661C13.065 14.7783 12.6587 14.372 12.6587 13.8709V8.22203C12.6587 7.72087 13.065 7.31461 13.5661 7.31461H17.1076C17.6088 7.31461 18.015 7.72087 18.015 8.22203V13.8709C18.0151 14.372 17.6088 14.7783 17.1076 14.7783Z" fill="url(#paint2_linear)"/>
<path d="M15.9856 30.8849H5.41016V44.4567H15.9856V30.8849Z" fill="url(#paint3_linear)"/>
<path d="M16.426 33.793H5.43369C4.98327 33.793 4.66083 33.3581 4.79155 32.927L5.88235 29.3339C5.9682 29.051 6.22892 28.8578 6.52449 28.8578H16.4261V33.793H16.426Z" fill="url(#paint4_linear)"/>
<path d="M47.5354 30.8849H36.96V44.4567H47.5354V30.8849Z" fill="url(#paint5_linear)"/>
<path d="M47.5353 40.901L40.43 33.7955H36.96V44.4565H47.5353V40.901Z" fill="url(#paint6_linear)"/>
<path d="M36.5195 33.793H47.5119C47.9623 33.793 48.2847 33.3581 48.154 32.927L47.0632 29.3339C46.9774 29.051 46.7166 28.8578 46.4211 28.8578H36.5195V33.793Z" fill="url(#paint7_linear)"/>
<path d="M40.4358 16.3768V44.4563H12.5132V16.3768L26.4727 2.69048L40.4358 16.3768Z" fill="url(#paint8_linear)"/>
<path d="M12.5132 16.3768V17.9856L38.9839 44.4563H40.4358V16.3768L26.4727 2.69048L12.5132 16.3768Z" fill="url(#paint9_linear)"/>
<path d="M40.4358 24.863V44.4565H31.6203L12.5132 25.3494V24.863H40.4358Z" fill="url(#paint10_linear)"/>
<path d="M36.1215 44.4565H22.4654L14.9586 36.9497C14.6281 36.7354 14.4082 36.3637 14.4082 35.9419V29.9002C14.4082 29.2383 14.9471 28.6994 15.609 28.6994H19.9648C20.3874 28.6994 20.7592 28.9194 20.9735 29.2498L20.9408 29.2757L36.1215 44.4565Z" fill="url(#paint11_linear)"/>
<path d="M19.9645 36.4388H15.6091C15.3344 36.4388 15.1118 36.2162 15.1118 35.9415V29.9006C15.1118 29.6259 15.3345 29.4033 15.6091 29.4033H19.9645C20.2392 29.4033 20.4618 29.626 20.4618 29.9006V35.9415C20.4619 36.2162 20.2392 36.4388 19.9645 36.4388Z" fill="#503837"/>
<path d="M19.9649 37.1428H15.6094C14.9471 37.1428 14.4082 36.6039 14.4082 35.9416V29.9007C14.4082 29.2384 14.9471 28.6995 15.6094 28.6995H19.9649C20.6272 28.6995 21.1661 29.2384 21.1661 29.9007V35.9416C21.1662 36.6039 20.6273 37.1428 19.9649 37.1428ZM15.8162 35.7349H19.7582V30.1073H15.8162V35.7349Z" fill="white"/>
<path d="M40.4369 31.1914V44.4565H40.0084L32.5017 36.9497C32.1702 36.7354 31.9502 36.3637 31.9502 35.9419V29.9002C31.9502 29.2383 32.4891 28.6994 33.152 28.6994H37.5068C37.9294 28.6994 38.3012 28.9194 38.5155 29.2498L38.5328 29.2633L38.5212 29.2759L40.4369 31.1914Z" fill="url(#paint12_linear)"/>
<path d="M37.507 36.4388H33.1516C32.8769 36.4388 32.6543 36.2162 32.6543 35.9415V29.9006C32.6543 29.6259 32.8769 29.4033 33.1516 29.4033H37.507C37.7817 29.4033 38.0043 29.626 38.0043 29.9006V35.9415C38.0044 36.2162 37.7817 36.4388 37.507 36.4388Z" fill="#503837"/>
<path d="M37.5068 37.1428H33.1514C32.4891 37.1428 31.9502 36.6039 31.9502 35.9416V29.9007C31.9502 29.2384 32.4891 28.6995 33.1514 28.6995H37.5068C38.1692 28.6995 38.7081 29.2384 38.7081 29.9007V35.9416C38.7081 36.6039 38.1692 37.1428 37.5068 37.1428ZM33.358 35.7349H37.3V30.1073H33.358V35.7349Z" fill="white"/>
<path d="M23.5649 44.4561V29.2019C23.5649 28.5291 24.1103 27.9837 24.7832 27.9837H28.1661C28.8389 27.9837 29.3843 28.5291 29.3843 29.2019V44.4561H23.5649Z" fill="#816965"/>
<path d="M30.1051 44.4561H28.664V29.6174C28.664 29.1152 28.2532 28.7043 27.751 28.7043H25.1987C24.6945 28.7043 24.2857 29.113 24.2857 29.6174V44.4561H22.8447V28.6644C22.8447 27.8906 23.472 27.2632 24.2459 27.2632H28.7039C29.4777 27.2632 30.105 27.8906 30.105 28.6644V44.4561H30.1051Z" fill="#503837"/>
<path d="M25.4426 34.3665C25.8055 34.3665 26.0996 34.0723 26.0996 33.7095C26.0996 33.3467 25.8055 33.0525 25.4426 33.0525C25.0798 33.0525 24.7856 33.3467 24.7856 33.7095C24.7856 34.0723 25.0798 34.3665 25.4426 34.3665Z" fill="white"/>
<path d="M40.4366 40.6117H12.5122V44.4559H40.4366V40.6117Z" fill="#654E48"/>
<path d="M12.2066 42.9539C12.2066 43.4845 12.1063 43.9908 11.923 44.4561H4.28363C4.10034 43.9908 4 43.4845 4 42.9539C4 42.4373 4.09525 41.9435 4.26967 41.4885C4.8595 39.9453 6.35358 38.8506 8.10338 38.8506C9.85319 38.8506 11.3472 39.9454 11.9371 41.4885C12.1114 41.9435 12.2066 42.4374 12.2066 42.9539Z" fill="url(#paint13_linear)"/>
<path d="M14.8525 43.3665C14.8525 43.7514 14.7797 44.1186 14.6468 44.4562H9.10509C8.97219 44.1187 8.89941 43.7514 8.89941 43.3665C8.89941 42.9918 8.9685 42.6335 9.09509 42.3035C9.52295 41.184 10.6067 40.39 11.8761 40.39C13.1454 40.39 14.2292 41.184 14.6571 42.3035C14.7834 42.6335 14.8525 42.9918 14.8525 43.3665Z" fill="url(#paint14_linear)"/>
<path d="M48.9453 42.705C48.9453 43.3235 48.8283 43.9136 48.6147 44.4561H39.7095C39.496 43.9137 39.3789 43.3235 39.3789 42.705C39.3789 42.1028 39.49 41.5272 39.6933 40.9968C40.3809 39.198 42.1224 37.9218 44.1621 37.9218C46.2018 37.9218 47.9433 39.198 48.6309 40.9968C48.8342 41.5272 48.9453 42.1028 48.9453 42.705Z" fill="url(#paint15_linear)"/>
<path d="M40.4358 20.3937V35.2759L22.4743 17.3136C22.1218 17.1013 21.8848 16.7161 21.8848 16.2755V12.901C21.8848 10.3717 23.9435 8.31396 26.4727 8.31396C27.8422 8.31396 29.0734 8.91853 29.915 9.87292L40.4358 20.3937Z" fill="url(#paint16_linear)"/>
<path d="M38.3894 18.9458H14.9178C14.3581 18.9458 13.9028 19.4011 13.9028 19.9607V24.467H14.6078V19.9607C14.6078 19.7898 14.7469 19.6508 14.9178 19.6508H16.3218V24.4669H17.0268V19.6508H19.1213V24.4669H19.8262V19.6508H21.9207V24.4669H22.6257V19.6508H24.7201V24.4669H25.4251V19.6508H27.5197V24.4669H28.2246V19.6508H30.3191V24.4669H31.0241V19.6508H33.1185V24.4669H33.8235V19.6508H35.918V24.4669H36.623V19.6508H38.389C38.5599 19.6508 38.699 19.7898 38.699 19.9607V24.467H39.404V19.9607C39.4043 19.4011 38.949 18.9458 38.3894 18.9458Z" fill="#654E48"/>
<path d="M45.435 18.8248L27.4055 0.789362C26.8916 0.275474 26.0584 0.275474 25.5445 0.789362L7.51046 18.8233C7.17425 19.1595 7.17425 19.7046 7.51046 20.0408L8.27901 20.8093C8.61522 21.1456 9.16028 21.1456 9.49649 20.8093L26.2299 4.07591C26.3652 3.94064 26.5846 3.94064 26.7198 4.07591L43.4489 20.8107C43.7851 21.147 44.3301 21.147 44.6664 20.8107L45.4349 20.0422C45.7712 19.7061 45.7712 19.161 45.435 18.8248Z" fill="url(#paint17_linear)"/>
<path d="M27.4056 0.789349C27.1487 0.532405 26.8119 0.403976 26.4751 0.403976V3.9746C26.5638 3.9746 26.6524 4.00848 26.7201 4.07608L43.4491 20.8109C43.7853 21.1471 44.3303 21.1471 44.6665 20.8109L45.4351 20.0424C45.7713 19.7061 45.7713 19.1611 45.4351 18.8249L27.4056 0.789349Z" fill="url(#paint18_linear)"/>
<path d="M29.8464 16.7568H23.0989C22.8328 16.7568 22.6172 16.5411 22.6172 16.2751V12.9013C22.6172 10.7719 24.3434 9.04572 26.4728 9.04572C28.6021 9.04572 30.3283 10.7719 30.3283 12.9013V16.2751C30.3282 16.5411 30.1124 16.7568 29.8464 16.7568Z" fill="#654E48"/>
<path d="M26.4728 8.31371C23.9432 8.31371 21.8853 10.3717 21.8853 12.9012V16.2749C21.8853 16.9443 22.4297 17.4887 23.099 17.4887H29.8466C30.5159 17.4887 31.0604 16.9443 31.0604 16.2749V12.9012C31.0603 10.3716 29.0024 8.31371 26.4728 8.31371ZM29.5709 12.5108H27.2049V9.86529C28.4516 10.166 29.4087 11.2163 29.5709 12.5108ZM25.7406 9.86529V12.5108H23.3746C23.5368 11.2163 24.4938 10.166 25.7406 9.86529ZM23.3493 13.975H25.7406V16.0248H23.3493V13.975ZM27.2049 16.0248V13.975H29.5962V16.0248H27.2049Z" fill="white"/>
</g>
<defs>
<filter id="filter0_d" x="0" y="0" width="52.9453" height="52.4567" filterUnits="userSpaceOnUse" color-interpolation-filters="sRGB">
<feFlood flood-opacity="0" result="BackgroundImageFix"/>
<feColorMatrix in="SourceAlpha" type="matrix" values="0 0 0 0 0 0 0 0 0 0 0 0 0 0 0 0 0 0 127 0" result="hardAlpha"/>
<feOffset dy="4"/>
<feGaussianBlur stdDeviation="2"/>
<feComposite in2="hardAlpha" operator="out"/>
<feColorMatrix type="matrix" values="0 0 0 0 0 0 0 0 0 0 0 0 0 0 0 0 0 0 0.25 0"/>
<feBlend mode="normal" in2="BackgroundImageFix" result="effect1_dropShadow"/>
<feBlend mode="normal" in="SourceGraphic" in2="effect1_dropShadow" result="shape"/>
</filter>
<linearGradient id="paint0_linear" x1="6.24436" y1="2.82019" x2="23.5358" y2="8.83588" gradientUnits="userSpaceOnUse">
<stop stop-color="#E2EDF2"/>
<stop offset="1" stop-color="#9FC7E2"/>
</linearGradient>
<linearGradient id="paint1_linear" x1="7.90807" y1="1.30358" x2="10.454" y2="2.18961" gradientUnits="userSpaceOnUse">
<stop stop-color="#E2EDF2"/>
<stop offset="1" stop-color="#9FC7E2"/>
</linearGradient>
<linearGradient id="paint2_linear" x1="13.902" y1="9.61324" x2="15.6787" y2="11.389" gradientUnits="userSpaceOnUse">
<stop stop-color="#816965"/>
<stop offset="1" stop-color="#654E48"/>
</linearGradient>
<linearGradient id="paint3_linear" x1="10.6977" y1="32.6046" x2="10.6977" y2="44.6568" gradientUnits="userSpaceOnUse">
<stop stop-color="#FFE7A5"/>
<stop offset="0.966" stop-color="#FFBF5C"/>
</linearGradient>
<linearGradient id="paint4_linear" x1="10.594" y1="29.4832" x2="10.594" y2="33.8666" gradientUnits="userSpaceOnUse">
<stop stop-color="#FF5D00"/>
<stop offset="1" stop-color="#D54003"/>
</linearGradient>
<linearGradient id="paint5_linear" x1="42.2468" y1="32.6046" x2="42.2468" y2="44.6568" gradientUnits="userSpaceOnUse">
<stop stop-color="#FFE7A5"/>
<stop offset="0.966" stop-color="#FFBF5C"/>
</linearGradient>
<linearGradient id="paint6_linear" x1="42" y1="42.0721" x2="31.038" y2="32.3033" gradientUnits="userSpaceOnUse">
<stop stop-color="#FF5D00" stop-opacity="0"/>
<stop offset="1" stop-color="#D54003"/>
</linearGradient>
<linearGradient id="paint7_linear" x1="42.3506" y1="29.4832" x2="42.3506" y2="33.8666" gradientUnits="userSpaceOnUse">
<stop stop-color="#FF5D00"/>
<stop offset="1" stop-color="#D54003"/>
</linearGradient>
<linearGradient id="paint8_linear" x1="26.474" y1="23.8633" x2="26.474" y2="53.4289" gradientUnits="userSpaceOnUse">
<stop stop-color="#FFE7A5"/>
<stop offset="0.966" stop-color="#FFBF5C"/>
<stop offset="1" stop-color="#DB9E36"/>
</linearGradient>
<linearGradient id="paint9_linear" x1="23.4564" y1="14.1642" x2="15.3735" y2="6.08125" gradientUnits="userSpaceOnUse">
<stop stop-color="#FF5D00" stop-opacity="0"/>
<stop offset="1" stop-color="#D54003"/>
</linearGradient>
<linearGradient id="paint10_linear" x1="27.5251" y1="31.6309" x2="24.3622" y2="11.9989" gradientUnits="userSpaceOnUse">
<stop stop-color="#FF5D00" stop-opacity="0"/>
<stop offset="1" stop-color="#D54003"/>
</linearGradient>
<linearGradient id="paint11_linear" x1="23.2267" y1="38.361" x2="10.6299" y2="25.7642" gradientUnits="userSpaceOnUse">
<stop stop-color="#FF5D00" stop-opacity="0"/>
<stop offset="1" stop-color="#D54003"/>
</linearGradient>
<linearGradient id="paint12_linear" x1="38.6993" y1="36.2916" x2="30.634" y2="28.2263" gradientUnits="userSpaceOnUse">
<stop stop-color="#FF5D00" stop-opacity="0"/>
<stop offset="1" stop-color="#D54003"/>
</linearGradient>
<linearGradient id="paint13_linear" x1="5.7892" y1="40.3995" x2="10.8526" y2="45.4624" gradientUnits="userSpaceOnUse">
<stop stop-color="#9EB644"/>
<stop offset="1" stop-color="#738611"/>
</linearGradient>
<linearGradient id="paint14_linear" x1="10.1971" y1="41.5132" x2="13.8702" y2="45.1863" gradientUnits="userSpaceOnUse">
<stop stop-color="#9EB644"/>
<stop offset="1" stop-color="#738611"/>
</linearGradient>
<linearGradient id="paint15_linear" x1="41.464" y1="39.7271" x2="47.3658" y2="45.6298" gradientUnits="userSpaceOnUse">
<stop stop-color="#9EB644"/>
<stop offset="1" stop-color="#738611"/>
</linearGradient>
<linearGradient id="paint16_linear" x1="32.8878" y1="20.3066" x2="19.9746" y2="7.39343" gradientUnits="userSpaceOnUse">
<stop stop-color="#FF5D00" stop-opacity="0"/>
<stop offset="1" stop-color="#D54003"/>
</linearGradient>
<linearGradient id="paint17_linear" x1="26.4722" y1="12.6034" x2="26.4722" y2="28.2626" gradientUnits="userSpaceOnUse">
<stop stop-color="#FF5D00"/>
<stop offset="1" stop-color="#D54003"/>
</linearGradient>
<linearGradient id="paint18_linear" x1="39.9408" y1="15.3837" x2="30.4761" y2="5.91906" gradientUnits="userSpaceOnUse">
<stop stop-color="#FF5D00" stop-opacity="0"/>
<stop offset="1" stop-color="#D54003"/>
</linearGradient>
</defs>
</svg>
