<svg width="52" height="53" viewBox="0 0 52 53" fill="none" xmlns="http://www.w3.org/2000/svg">
<path d="M26.2827 0.00204468V52.9978C40.5121 52.8442 52.0002 41.0392 52.0002 26.4999C52.0002 11.9606 40.5121 0.155606 26.2827 0.00204468V0.00204468Z" fill="#FFBB54"/>
<path d="M26.2825 0.0021328C26.1883 0.0010664 26.0942 0 26 0C11.6409 0 0 11.8647 0 26.5C0 41.1353 11.6409 53 26 53C26.0942 53 26.1883 52.9989 26.2825 52.9979C38.1996 52.8144 47.8149 41.0211 47.8149 26.5C47.8149 11.9789 38.1996 0.185553 26.2825 0.0021328V0.0021328Z" fill="#FFD45A"/>
<path d="M36.3058 23.3221L26.1328 36.5721H36.5841C38.3764 34.2442 39.4446 31.3094 39.4446 28.1209V26.5213C39.4446 24.7618 38.0321 23.3221 36.3058 23.3221V23.3221Z" fill="#B74147"/>
<path d="M15.694 23.3221C13.9677 23.3221 12.5552 24.7618 12.5552 26.5213V28.1209C12.5552 31.3094 13.6234 34.2442 15.4157 36.5721L34.9863 34.8318C35.8265 32.8483 36.3057 30.5587 36.3057 28.1209V26.5216L15.694 23.3221Z" fill="#FF3C1F"/>
<path d="M34.9864 34.8318L26.1328 41.8231C30.3755 41.7815 34.1473 39.7372 36.5841 36.5721C36.1017 35.9461 35.5671 35.3628 34.9864 34.8318Z" fill="#FA4087"/>
<path d="M34.9866 34.8317C33.2414 38.9576 29.9352 41.7591 26.133 41.8231C26.0891 41.8241 26.0441 41.8241 26.0002 41.8241C21.7031 41.8241 17.8779 39.7702 15.416 36.5721C17.8779 33.375 21.7031 31.3201 26.0002 31.3201C29.455 31.3201 32.6053 32.6488 34.9866 34.8317Z" fill="#FA71A3"/>
<path d="M33.1671 23.3221L31.5977 28.1209H34.7365C35.5997 28.1209 36.3059 27.4011 36.3059 26.5213V23.3221H33.1671Z" fill="#FFF7DF"/>
<path d="M33.1672 23.3221V26.5213C33.1672 27.4011 32.4609 28.1209 31.5978 28.1209H17.2638C16.4006 28.1209 15.6943 27.4011 15.6943 26.5213V23.3221H33.1672Z" fill="white"/>
<path d="M26.7848 45.8235H25.2154C24.7819 45.8235 24.4307 45.4654 24.4307 45.0237C24.4307 44.582 24.7819 44.2239 25.2154 44.2239H26.7848C27.2183 44.2239 27.5695 44.582 27.5695 45.0237C27.5695 45.4654 27.2183 45.8235 26.7848 45.8235Z" fill="#FFBB54"/>
<path d="M34.7364 12.125C33.8732 12.125 33.167 12.8448 33.167 13.7246V18.5233C33.167 19.4031 33.8732 20.1229 34.7364 20.1229C35.5996 20.1229 36.3058 19.4031 36.3058 18.5233V13.7246C36.3058 12.8448 35.5996 12.125 34.7364 12.125V12.125Z" fill="#474867"/>
<path d="M17.2638 12.126C16.4006 12.126 15.6943 12.8458 15.6943 13.7256V18.5244C15.6943 19.4041 16.4006 20.124 17.2638 20.124C18.1269 20.124 18.8332 19.4041 18.8332 18.5244V13.7256C18.8332 12.8458 18.1269 12.126 17.2638 12.126Z" fill="#474867"/>
</svg>
